M48
INCH,TZ
VER,1
FMAT,2
DETECT,ON
ATC,ON
T1C0.03500
T2C0.03333
T3C0.03543
T4C0.02362
%
T1
X0.12000Y3.40000
X0.42000Y3.10000
Y3.40000
X0.32000Y3.10000
X0.22000
X0.32000Y3.40000
X0.22000
X0.86000Y3.18000
Y3.28000
T2
X0.12000Y3.10000
T3
X1.07181Y3.46000
X0.56000
T4
X0.92000Y3.34000
X0.98000Y3.52000
X0.78000Y3.78000
X0.56000Y3.86000
X0.58000Y3.68000
X0.28000Y3.52000
X0.96000Y3.72000
X0.76000Y3.84000
X0.78000Y3.72000
X0.56000Y3.80000
X0.16000Y3.78000
X1.00000
X0.16000Y3.84000
X1.00000
X0.98000Y3.64000
X0.40000
M30
